Coordinates
version=1
nRows=20
nColumns=63
inDegrees=yes

Units are S.I. units (second, meters, Newtons, ...)
If the header above contains a line with 'inDegrees', this indicates whether rotational values are in degrees (yes) or radians (no).

endheader
time	pelvis_tilt	pelvis_list	pelvis_rotation	pelvis_tx	pelvis_ty	pelvis_tz	hip_flexion_r	hip_adduction_r	hip_rotation_r	knee_angle_r	knee_angle_r_beta	ankle_angle_r	subtalar_angle_r	mtp_angle_r	hip_flexion_l	hip_adduction_l	hip_rotation_l	knee_angle_l	knee_angle_l_beta	ankle_angle_l	subtalar_angle_l	mtp_angle_l	L5_S1_Flex_Ext	L5_S1_Lat_Bending	L5_S1_axial_rotation	L4_L5_Flex_Ext	L4_L5_Lat_Bending	L4_L5_axial_rotation	L3_L4_Flex_Ext	L3_L4_Lat_Bending	L3_L4_axial_rotation	L2_L3_Flex_Ext	L2_L3_Lat_Bending	L2_L3_axial_rotation	L1_L2_Flex_Ext	L1_L2_Lat_Bending	L1_L2_axial_rotation	L1_T12_Flex_Ext	L1_T12_Lat_Bending	L1_T12_axial_rotation	Abs_r3	Abs_r2	Abs_r1	Abs_t1	Abs_t2	neck_flexion	neck_bending	neck_rotation	arm_flex_r	arm_add_r	arm_rot_r	elbow_flex_r	pro_sup_r	wrist_flex_r	wrist_dev_r	arm_flex_l	arm_add_l	arm_rot_l	elbow_flex_l	pro_sup_l	wrist_flex_l	wrist_dev_l
1.508475	3.174445	-0.269370	84.327313	0.147856	0.646774	0.776996	4.053977	1.775701	-6.037165	12.516784	0.218459	34.956942	14.124182	0.000000	1.604182	-1.183921	-4.367380	6.068243	0.105911	35.260751	1.176415	0.000000	-0.050871	0.455910	0.999153	-0.094472	0.606361	1.061600	-0.083575	1.108501	1.061600	-0.058140	1.108501	0.874259	-0.047238	0.929693	0.811811	-0.029067	0.706205	0.749364	-0.363364	5.157351	5.556987	0.000000	0.000000	16.783893	-4.692178	10.949909	-3.559845	-14.733412	31.209431	30.660599	84.770592	-7.336826	1.208136	6.997844	-10.177780	51.857137	29.518283	68.884503	-3.653964	-3.620300
1.525424	3.191025	-0.280773	84.110098	0.148922	0.647016	0.776533	3.918336	1.876310	-5.830669	12.299262	0.214663	34.696396	13.984750	0.000000	1.444735	-1.285253	-5.186792	5.862387	0.102318	35.328475	1.949870	0.000000	-0.047586	0.446361	0.994098	-0.088372	0.593660	1.056229	-0.078179	1.085281	1.056229	-0.054386	1.085281	0.869835	-0.044188	0.910219	0.807704	-0.027191	0.691413	0.745573	-0.339901	5.049320	5.528873	0.000000	0.000000	16.938788	-4.733453	11.094017	-3.560314	-14.492742	31.054201	30.579868	84.479236	-6.638363	1.456353	6.978044	-10.280378	52.330721	29.210631	68.791863	-3.828928	-3.949862
1.542373	3.188260	-0.308067	83.862319	0.149958	0.647207	0.776246	3.847535	1.963062	-5.526908	12.127654	0.211667	34.451990	13.756806	0.000000	1.324012	-1.355570	-5.875311	5.667745	0.098921	35.354353	2.506137	0.000000	-0.044443	0.434800	0.995002	-0.082536	0.578284	1.057190	-0.073016	1.057173	1.057190	-0.050794	1.057173	0.870627	-0.041270	0.886645	0.808439	-0.025395	0.673506	0.746252	-0.317454	4.918548	5.533904	0.000000	0.000000	17.057648	-4.770765	11.227362	-3.489104	-14.286732	31.183048	30.443246	84.233374	-6.137993	1.654007	6.944188	-10.388550	52.720179	28.964915	68.640790	-4.085855	-4.240079
1.559322	3.175521	-0.323455	83.610688	0.150909	0.647374	0.776106	3.802705	2.032714	-5.182732	11.996767	0.209383	34.237139	13.496565	0.000000	1.212572	-1.407480	-6.574165	5.486925	0.095765	35.388371	3.087348	0.000000	-0.044157	0.422459	1.001253	-0.082004	0.561871	1.063832	-0.072546	1.027167	1.063832	-0.050467	1.027167	0.876097	-0.041004	0.861479	0.813518	-0.025231	0.654389	0.750940	-0.315411	4.778943	5.568671	0.000000	0.000000	17.079072	-4.815033	11.323355	-3.387993	-14.125136	31.419118	30.292143	84.028279	-5.733790	1.762552	6.879393	-10.467275	52.792070	28.794672	68.675073	-4.203620	-4.325137
1.576271	3.161848	-0.330301	83.360953	0.151734	0.647516	0.776112	3.784755	2.100974	-4.723019	11.904479	0.207772	34.032847	13.110405	0.000000	1.121336	-1.441486	-7.090701	5.336955	0.093147	35.391155	3.439835	0.000000	-0.045735	0.411157	1.018115	-0.084934	0.546839	1.081747	-0.075137	0.999687	1.081747	-0.052270	0.999687	0.890850	-0.042469	0.838431	0.827218	-0.026133	0.636882	0.763586	-0.326677	4.651090	5.662448	0.000000	0.000000	16.986812	-4.862603	11.367875	-3.309818	-13.999137	31.580054	30.176220	83.947665	-5.455254	1.799053	6.846402	-10.500035	52.792110	28.584245	68.718373	-4.199745	-4.456244
1.593220	3.154313	-0.324592	83.128723	0.152365	0.647637	0.776227	3.786473	2.165679	-4.202156	11.854157	0.206894	33.849083	12.656553	0.000000	1.042802	-1.457696	-7.375359	5.218488	0.091080	35.349628	3.516784	0.000000	-0.048985	0.402369	1.042900	-0.090970	0.535150	1.108081	-0.080478	0.978319	1.108081	-0.055985	0.978319	0.912537	-0.045488	0.820510	0.847356	-0.027990	0.623269	0.782175	-0.349895	4.551675	5.800296	0.000000	0.000000	16.776010	-4.900941	11.365406	-3.251903	-13.923303	31.698023	30.110973	83.982984	-5.346202	1.757298	6.837307	-10.480589	52.726642	28.356269	68.763210	-4.101734	-4.610993
1.610169	3.149703	-0.307628	82.925146	0.152816	0.647749	0.776422	3.798806	2.224324	-3.630628	11.832675	0.206519	33.683136	12.134409	0.000000	0.976985	-1.456185	-7.482380	5.136846	0.089655	35.268892	3.399440	0.000000	-0.053229	0.395528	1.069531	-0.098852	0.526052	1.136376	-0.087450	0.961686	1.136376	-0.060836	0.961686	0.935839	-0.049429	0.806560	0.868994	-0.030415	0.612672	0.802148	-0.380211	4.474286	5.948408	0.000000	0.000000	16.457569	-4.905309	11.351124	-3.162555	-13.911444	31.977007	30.060998	84.007669	-5.434560	1.598106	6.824305	-10.435749	52.538423	28.180177	68.808758	-3.958821	-4.686251
1.627119	3.169170	-0.284547	82.757373	0.153025	0.647848	0.776644	3.818626	2.295040	-3.035965	11.832660	0.206519	33.527519	11.563316	0.000000	0.922276	-1.457463	-7.371389	5.090577	0.088847	35.145718	3.050546	0.000000	-0.057523	0.394038	1.101149	-0.106826	0.524070	1.169971	-0.094505	0.958064	1.169971	-0.065743	0.958064	0.963505	-0.053416	0.803522	0.894684	-0.032869	0.610365	0.825862	-0.410882	4.457435	6.124260	0.000000	0.000000	16.066594	-4.882257	11.323532	-3.115489	-13.950493	32.121987	30.093983	84.119661	-5.576870	1.440734	6.835752	-10.318631	52.295241	27.945316	68.866644	-3.690523	-4.859394
1.644068	3.204550	-0.262720	82.631118	0.153005	0.647936	0.776878	3.848904	2.366696	-2.464664	11.846803	0.206766	33.384427	10.993949	0.000000	0.885414	-1.455159	-7.041176	5.076345	0.088599	34.974584	2.468268	0.000000	-0.060355	0.396818	1.134496	-0.112086	0.527767	1.205402	-0.099158	0.964822	1.205402	-0.068980	0.964822	0.992684	-0.056046	0.809190	0.921778	-0.034487	0.614670	0.850872	-0.431112	4.488880	6.309726	0.000000	0.000000	15.615143	-4.811482	11.315353	-3.092363	-14.029052	32.188024	30.182204	84.293360	-5.748103	1.328697	6.890665	-10.152887	52.173790	27.665710	68.779607	-3.386545	-5.117328
1.661017	3.258617	-0.249525	82.596773	0.152685	0.648004	0.777112	3.883551	2.431508	-2.047002	11.859306	0.206984	33.263541	10.523419	0.000000	0.883172	-1.449037	-6.404088	5.097710	0.088972	34.750073	1.597840	0.000000	-0.060707	0.404292	1.162946	-0.112739	0.537708	1.235630	-0.099735	0.982995	1.235630	-0.069382	0.982995	1.017578	-0.056372	0.824432	0.944894	-0.034688	0.626248	0.872210	-0.433624	4.573429	6.467958	0.000000	0.000000	15.132854	-4.723472	11.322558	-3.138991	-14.121718	31.976542	30.347632	84.566666	-5.807610	1.343220	7.008655	-9.927175	52.212818	27.301727	68.640744	-2.986168	-5.482313
1.677966	3.322269	-0.233722	82.645873	0.152137	0.648073	0.777328	3.902003	2.484450	-1.777763	11.856846	0.206941	33.161082	10.154323	0.000000	0.893801	-1.438488	-5.589154	5.132535	0.089580	34.503095	0.592926	0.000000	-0.059885	0.414310	1.182916	-0.111213	0.551032	1.256848	-0.098385	1.007353	1.256848	-0.068443	1.007353	1.035051	-0.055609	0.844861	0.961119	-0.034218	0.641766	0.887187	-0.427753	4.686757	6.579023	0.000000	0.000000	14.622649	-4.631782	11.340166	-3.205355	-14.233336	31.737216	30.540892	84.762150	-5.858293	1.466387	7.181865	-9.711442	52.481641	26.988829	68.301340	-2.565559	-5.686645
1.694915	3.374184	-0.235688	82.702535	0.151489	0.648144	0.777534	3.936667	2.518513	-1.519050	11.847484	0.206778	33.067153	9.804304	0.000000	0.918681	-1.412907	-4.798155	5.147455	0.089840	34.250911	-0.378571	0.000000	-0.055478	0.424279	1.205104	-0.103029	0.564292	1.280423	-0.091145	1.031593	1.280423	-0.063406	1.031593	1.054466	-0.051517	0.865191	0.979147	-0.031700	0.657209	0.903828	-0.396276	4.799534	6.702426	0.000000	0.000000	14.123046	-4.520634	11.419556	-3.260001	-14.358884	31.587833	30.702224	84.746686	-5.835619	1.655495	7.389679	-9.490693	53.018524	26.637606	67.802590	-2.235483	-6.020159
1.711864	3.429296	-0.248126	82.885059	0.150639	0.648207	0.777725	3.955046	2.539614	-1.467951	11.801097	0.205968	32.993192	9.587624	0.000000	0.984670	-1.390981	-3.972053	5.180414	0.090415	34.038932	-1.237449	0.000000	-0.048685	0.434644	1.210311	-0.090413	0.578077	1.285955	-0.079984	1.056794	1.285955	-0.055642	1.056794	1.059022	-0.045209	0.886327	0.983377	-0.027819	0.673264	0.907733	-0.347751	4.916783	6.731385	0.000000	0.000000	13.677734	-4.464449	11.488385	-3.365407	-14.451900	31.232391	30.878810	84.696224	-5.719778	1.957379	7.626819	-9.296578	53.716481	26.342267	67.331760	-1.941231	-6.178530
1.728814	3.475126	-0.271830	83.137614	0.149689	0.648265	0.777936	3.978278	2.542930	-1.546107	11.745567	0.204999	32.950479	9.479189	0.000000	1.081824	-1.353310	-2.971250	5.211869	0.090964	33.816789	-2.253166	0.000000	-0.040188	0.443805	1.212017	-0.074633	0.590260	1.287768	-0.066025	1.079067	1.287768	-0.045931	1.079067	1.060515	-0.037319	0.905007	0.984764	-0.022963	0.687453	0.909013	-0.287059	5.020407	6.740877	0.000000	0.000000	13.334916	-4.476349	11.540052	-3.511060	-14.526174	30.760317	31.075341	84.583475	-5.561345	2.337794	8.026778	-9.188239	55.262875	26.055360	66.173964	-1.764191	-6.318117
1.745763	3.508742	-0.291582	83.456456	0.148698	0.648337	0.778118	3.978001	2.529153	-1.749057	11.661861	0.203538	32.942456	9.499608	0.000000	1.189444	-1.316234	-2.173797	5.244909	0.091541	33.674605	-2.924489	0.000000	-0.032309	0.450243	1.201087	-0.060002	0.598823	1.276155	-0.053081	1.094721	1.276155	-0.036926	1.094721	1.050951	-0.030003	0.918136	0.975883	-0.018462	0.697427	0.900815	-0.230783	5.093240	6.680084	0.000000	0.000000	13.118693	-4.557756	11.586456	-3.668867	-14.549487	30.149409	31.255616	84.434978	-5.329923	2.768152	8.341609	-9.101981	56.373593	25.873722	65.545190	-1.422857	-6.058505
1.762712	3.535229	-0.314668	83.858372	0.147677	0.648402	0.778270	3.958916	2.503998	-2.126111	11.546706	0.201528	32.970389	9.685356	0.000000	1.311617	-1.286667	-1.520614	5.273781	0.092045	33.604022	-3.284206	0.000000	-0.024644	0.453974	1.172581	-0.045766	0.603786	1.245868	-0.040487	1.103793	1.245868	-0.028165	1.103793	1.026009	-0.022884	0.925744	0.952722	-0.014081	0.703206	0.879436	-0.176027	5.135446	6.521545	0.000000	0.000000	13.089272	-4.716561	11.620436	-3.818488	-14.547132	29.549715	31.433804	84.197044	-5.137683	3.188031	8.563812	-9.065203	57.116056	25.849219	65.278062	-1.021116	-5.368739
1.779661	3.556318	-0.348045	84.354184	0.146625	0.648444	0.778396	3.930770	2.469253	-2.703206	11.406158	0.199075	33.035512	10.045223	0.000000	1.464217	-1.269018	-1.015549	5.317167	0.092802	33.604672	-3.327135	0.000000	-0.016657	0.455131	1.123443	-0.030934	0.605325	1.193658	-0.027366	1.106606	1.193658	-0.019037	1.106606	0.983012	-0.015468	0.928104	0.912797	-0.009518	0.704998	0.842582	-0.118978	5.148536	6.248252	0.000000	0.000000	13.289643	-4.952549	11.641061	-3.955258	-14.515012	28.956554	31.604386	83.950313	-5.021995	3.578353	8.680979	-9.065973	57.466943	25.953664	65.405267	-0.650847	-4.391660
1.796610	3.581169	-0.388726	84.926211	0.145550	0.648457	0.778498	3.896208	2.435128	-3.435890	11.253145	0.196404	33.139394	10.529325	0.000000	1.646197	-1.270691	-0.644642	5.390047	0.094074	33.678013	-3.095126	0.000000	-0.008645	0.455196	1.059043	-0.016054	0.605411	1.125233	-0.014202	1.106764	1.125233	-0.009880	1.106764	0.926663	-0.008027	0.928236	0.860473	-0.004940	0.705099	0.794282	-0.061748	5.149270	5.890080	0.000000	0.000000	13.713578	-5.282546	11.649138	-4.090717	-14.468736	28.368103	31.776164	83.744026	-4.984346	3.905049	8.743040	-9.087301	57.672620	26.093455	65.740046	-0.415143	-3.386614
1.813559	3.608325	-0.436841	85.552295	0.144474	0.648426	0.778585	3.861330	2.402823	-4.276054	11.097518	0.193688	33.266843	11.071364	0.000000	1.851084	-1.287004	-0.381775	5.487330	0.095772	33.806147	-2.651258	0.000000	-0.000952	0.454004	0.986782	-0.001767	0.603826	1.048456	-0.001564	1.103867	1.048456	-0.001088	1.103867	0.863434	-0.000884	0.925806	0.801760	-0.000544	0.703253	0.740086	-0.006798	5.135790	5.488184	0.000000	0.000000	14.341756	-5.708960	11.620570	-4.246313	-14.404598	27.714096	31.961446	83.644035	-4.989132	4.213188	8.750858	-9.111064	57.622365	26.252266	66.371289	-0.167457	-2.343153
1.830508	3.635724	-0.484456	86.210331	0.143418	0.648365	0.778674	3.827563	2.365623	-5.237448	10.960123	0.191290	33.419618	11.692014	0.000000	2.066881	-1.318007	-0.304059	5.610581	0.097923	33.990078	-1.935175	0.000000	0.005581	0.451488	0.912778	0.010365	0.600479	0.969827	0.009169	1.097748	0.969827	0.006379	1.097748	0.798681	0.005183	0.920674	0.741632	0.003189	0.699355	0.684584	0.039866	5.107321	5.076598	0.000000	0.000000	15.103660	-6.219289	11.535623	-4.400550	-14.342410	27.147656	32.124008	83.580766	-5.071547	4.452299	8.795113	-9.175569	57.838216	26.392870	66.846935	-0.201721	-1.503163
